<svg width="127" height="48" viewBox="0 0 127 48" fill="none" xmlns="http://www.w3.org/2000/svg">
<path d="M114.788 0C105.129 0 102.58 7.50536 102.58 11.475V44.2458H3.72556V7.32639H0V47.9985H127V11.5021C127 7.50535 124.446 0 114.788 0ZM123.274 44.2458H106.29V11.4858C106.29 10.694 106.604 3.72556 114.777 3.72556C122.949 3.72556 123.253 10.6941 123.264 11.475L123.274 44.2458Z" fill="#1E1E1C"/>
<path d="M28.9912 30.1733C28.9912 30.558 28.8383 30.927 28.5663 31.1991C28.2942 31.4711 27.9253 31.624 27.5405 31.624C27.1558 31.624 26.7868 31.4711 26.5148 31.1991C26.2427 30.927 26.0899 30.558 26.0899 30.1733V19.4521H24.0942V30.2601C24.0942 32.7329 25.656 33.6169 27.1745 33.6169C28.335 33.6169 28.8014 33.2047 28.9912 32.8685V37.1743H31.0085V19.4521H28.9912V30.1733Z" fill="black"/>
<path d="M47.7652 19.4521H45.5689L42.9605 23.5519V19.4521H40.9648V33.2969H42.9605V25.9109L45.8618 33.2969H48.1719L44.4572 24.6148L47.7652 19.4521Z" fill="black"/>
<path d="M55.5201 22.8957C55.5201 20.5638 53.9583 19.2677 52.0711 19.2677C50.1839 19.2677 48.6221 20.4499 48.6221 22.6245V30.1732C48.6221 31.0693 48.978 31.9286 49.6116 32.5622C50.2452 33.1958 51.1046 33.5517 52.0006 33.5517C52.8966 33.5517 53.756 33.1958 54.3895 32.5622C55.0231 31.9286 55.3791 31.0693 55.3791 30.1732V29.2893L53.3618 29.9455V30.1732C53.3735 30.3603 53.3468 30.5478 53.2833 30.7242C53.2199 30.9005 53.1209 31.062 52.9926 31.1986C52.8643 31.3353 52.7094 31.4442 52.5374 31.5186C52.3653 31.5931 52.1799 31.6315 51.9924 31.6315C51.805 31.6315 51.6196 31.5931 51.4475 31.5186C51.2755 31.4442 51.1206 31.3353 50.9923 31.1986C50.864 31.062 50.765 30.9005 50.7016 30.7242C50.6381 30.5478 50.6114 30.3603 50.6231 30.1732V29.4954C54.0667 27.7275 55.5201 26.6375 55.5201 22.8957ZM50.6394 22.6245C50.6225 22.4289 50.6482 22.2319 50.7146 22.0471C50.781 21.8623 50.8866 21.6941 51.0242 21.554C51.1617 21.4139 51.328 21.3052 51.5115 21.2353C51.695 21.1655 51.8914 21.1362 52.0873 21.1495C52.8791 21.1495 53.5407 21.6267 53.5407 23.0041C53.5407 25.1136 53.0418 26.1548 50.6394 27.2882V22.6245Z" fill="black"/>
<path d="M60.7371 19.2731C60.3573 19.2626 59.9795 19.3319 59.6282 19.4768C59.277 19.6216 58.9601 19.8386 58.6981 20.1137L58.2479 19.4575H56.9302V37.1797H58.9258V32.8414C59.166 33.1034 59.4613 33.3088 59.7904 33.4429C60.1196 33.577 60.4744 33.6364 60.8293 33.6168C62.3423 33.6168 63.8228 32.5756 63.8228 30.1733V22.5811C63.7956 20.5638 62.6839 19.2731 60.7371 19.2731ZM61.8217 30.1733C61.8217 30.558 61.6688 30.927 61.3968 31.199C61.1247 31.4711 60.7558 31.6239 60.3711 31.6239C59.9863 31.6239 59.6173 31.4711 59.3453 31.199C59.0732 30.927 58.9204 30.558 58.9204 30.1733V22.6354C58.9083 22.4374 58.9368 22.2391 59.0043 22.0526C59.0717 21.866 59.1766 21.6953 59.3125 21.5508C59.4484 21.4064 59.6124 21.2913 59.7944 21.2126C59.9765 21.1339 60.1727 21.0933 60.3711 21.0933C60.5694 21.0933 60.7656 21.1339 60.9477 21.2126C61.1297 21.2913 61.2937 21.4064 61.4296 21.5508C61.5655 21.6953 61.6704 21.866 61.7378 22.0526C61.8053 22.2391 61.8338 22.4374 61.8217 22.6354V30.1733Z" fill="black"/>
<path d="M81.1381 30.1733C81.1381 30.558 80.9853 30.927 80.7132 31.1991C80.4412 31.4711 80.0722 31.624 79.6875 31.624C79.3027 31.624 78.9338 31.4711 78.6617 31.1991C78.3897 30.927 78.2369 30.558 78.2369 30.1733V19.4521H76.2412V30.2601C76.2412 32.7329 77.803 33.6169 79.3214 33.6169C80.4765 33.6169 80.9483 33.2047 81.1327 32.8685V37.1743H83.15V19.4521H81.1327L81.1381 30.1733Z" fill="black"/>
<path d="M89.0881 26.1169C89.6328 25.9481 90.1051 25.6015 90.4295 25.1325C90.7539 24.6636 90.9117 24.0994 90.8777 23.5302V22.7167C90.8936 22.2714 90.82 21.8273 90.6612 21.4109C90.5024 20.9945 90.2616 20.6142 89.9531 20.2926C89.6447 19.9709 89.2748 19.7145 88.8653 19.5385C88.4559 19.3624 88.0153 19.2704 87.5697 19.2678C87.1097 19.24 86.6492 19.3102 86.2185 19.4738C85.7877 19.6374 85.3966 19.8906 85.0711 20.2167C84.7455 20.5427 84.4929 20.9342 84.33 21.3652C84.1671 21.7962 84.0976 22.2569 84.1261 22.7167V23.3024H86.1163V22.7167C86.1134 22.5251 86.149 22.3348 86.221 22.1571C86.293 21.9795 86.3999 21.8181 86.5355 21.6825C86.671 21.547 86.8324 21.4401 87.01 21.3681C87.1877 21.296 87.378 21.2605 87.5697 21.2634C87.7517 21.2686 87.9307 21.311 88.0957 21.388C88.2607 21.465 88.4082 21.5749 88.5292 21.7111C88.6501 21.8472 88.7418 22.0067 88.7988 22.1796C88.8557 22.3526 88.8767 22.5354 88.8603 22.7167V23.3946C88.8603 24.913 88.4482 25.4119 86.7508 25.4119V26.9738C88.4482 26.9738 89.0176 27.6299 89.0176 29.0399V30.1245C89.0176 30.5085 88.865 30.8768 88.5935 31.1483C88.322 31.4199 87.9537 31.5724 87.5697 31.5724C87.378 31.5768 87.1875 31.5424 87.0096 31.4713C86.8316 31.4002 86.6699 31.2938 86.5341 31.1585C86.3983 31.0232 86.2913 30.8619 86.2195 30.6842C86.1477 30.5065 86.1126 30.3161 86.1163 30.1245V29.8967L84.1261 29.2405V30.1245C84.1239 30.5773 84.2115 31.0261 84.3838 31.4448C84.5561 31.8636 84.8097 32.2441 85.1299 32.5643C85.4501 32.8845 85.8306 33.138 86.2493 33.3103C86.6681 33.4826 87.1168 33.5702 87.5697 33.5681C88.0251 33.58 88.4783 33.4991 88.9015 33.3302C89.3246 33.1614 89.709 32.9082 90.0312 32.586C90.3534 32.2639 90.6066 31.8795 90.7754 31.4563C90.9443 31.0331 91.0252 30.58 91.0132 30.1245V28.8772C91.0434 28.2689 90.8708 27.6677 90.5223 27.1681C90.1739 26.6685 89.6694 26.2988 89.0881 26.1169Z" fill="black"/>
<path d="M37.5647 24.3816H34.4573V19.4521H32.4617V24.3816V26.3773V33.2969H34.4573V26.3773H37.5647V33.2969H39.5549V26.3773V24.3816V19.4521H37.5647V24.3816Z" fill="black"/>
<path d="M18.617 17.4945H21.8165L22.5107 15.4934H15.5747V17.4891L17.8795 19.4955C17.2374 19.7219 16.6859 20.1502 16.3075 20.7162C15.9292 21.2822 15.7444 21.9556 15.7808 22.6354V30.1733C15.7574 30.6317 15.8305 31.0899 15.9953 31.5183C16.1601 31.9466 16.4129 32.3357 16.7375 32.6602C17.062 32.9848 17.4511 33.2376 17.8794 33.4024C18.3078 33.5672 18.766 33.6403 19.2244 33.6169C19.6813 33.6344 20.1369 33.5573 20.5626 33.3905C20.9883 33.2236 21.375 32.9706 21.6983 32.6473C22.0216 32.3239 22.2746 31.9373 22.4415 31.5116C22.6084 31.0859 22.6854 30.6302 22.6679 30.1733V22.6354C22.6791 22.1989 22.6022 21.7646 22.442 21.3584C22.2817 20.9522 22.0413 20.5824 21.7352 20.271L18.617 17.4945ZM20.6723 30.1733C20.6723 30.5581 20.5194 30.927 20.2474 31.1991C19.9754 31.4711 19.6064 31.624 19.2216 31.624C18.8369 31.624 18.4679 31.4711 18.1959 31.1991C17.9238 30.927 17.771 30.5581 17.771 30.1733V22.6354C17.7541 22.4398 17.7798 22.2429 17.8462 22.0581C17.9126 21.8733 18.0182 21.7051 18.1558 21.5649C18.2933 21.4248 18.4595 21.3161 18.6431 21.2463C18.8266 21.1765 19.023 21.1472 19.2189 21.1604C19.4775 21.1581 19.7327 21.2195 19.9619 21.3393L20.4174 21.7407C20.5903 22.0063 20.6774 22.3187 20.6668 22.6354L20.6723 30.1733Z" fill="black"/>
<path d="M69.6305 24.0183L66.3822 19.4521H65.0698V33.2969H67.06V23.8556L68.4049 25.7319L68.9364 26.4803H70.3192L70.8561 25.7319L72.2118 23.8285V33.2969H74.2075V19.4521H72.8897L69.6305 24.0183Z" fill="black"/>
</svg>
