<svg width="80" height="78" viewBox="0 0 80 78" fill="none" xmlns="http://www.w3.org/2000/svg">
<path d="M66.8668 0C56.6304 0 53.9226 7.96427 53.9226 12.1806V46.9236H4.34265V7.7675H0.393311V50.8683H79.8299V12.1666C79.8299 7.95958 77.1079 0 66.8668 0ZM75.8618 46.9142H57.8719V12.1806C57.8719 11.3374 58.2045 3.95403 66.8668 3.95403C75.5291 3.95403 75.8524 11.3421 75.8618 12.1713V46.9142Z" fill="white"/>
<path d="M14.2423 70.3758C14.2423 70.784 14.0802 71.1754 13.7916 71.464C13.503 71.7527 13.1115 71.9148 12.7034 71.9148C12.2952 71.9148 11.9038 71.7527 11.6151 71.464C11.3265 71.1754 11.1644 70.784 11.1644 70.3758V59.0103H9.05151V70.4648C9.05151 73.0837 10.71 74.0206 12.3309 74.0206C13.5584 74.0206 14.0362 73.585 14.2564 73.2242V77.7873H16.3927V59.001H14.2423V70.3758Z" fill="white"/>
<path d="M34.1292 59.0107H31.7961L29.0321 63.3583V59.0107H26.9192V73.6884H29.0321V65.8553L32.11 73.6884H34.5602L30.6202 64.4827L34.1292 59.0107Z" fill="white"/>
<path d="M42.3514 62.6602C42.3514 60.1866 40.6929 58.814 38.6972 58.814C36.7014 58.814 35.043 60.0648 35.043 62.3698V70.3715C35.043 72.6765 36.5843 74.0257 38.6269 74.0257C40.6695 74.0257 42.2061 72.6812 42.2061 70.3715V69.4345L40.0651 70.1279V70.3715C40.0651 70.5622 40.0276 70.7511 39.9546 70.9273C39.8816 71.1035 39.7746 71.2636 39.6398 71.3985C39.5049 71.5333 39.3448 71.6403 39.1686 71.7133C38.9924 71.7863 38.8036 71.8238 38.6128 71.8238C38.4221 71.8238 38.2333 71.7863 38.0571 71.7133C37.8809 71.6403 37.7208 71.5333 37.5859 71.3985C37.451 71.2636 37.3441 71.1035 37.2711 70.9273C37.1981 70.7511 37.1605 70.5622 37.1605 70.3715V69.6501C40.81 67.7808 42.3514 66.6283 42.3514 62.6602ZM37.1605 62.3698C37.1432 62.1625 37.1708 61.954 37.2415 61.7584C37.3123 61.5628 37.4245 61.3849 37.5704 61.2367C37.7164 61.0885 37.8926 60.9737 38.0871 60.9C38.2816 60.8263 38.4897 60.7955 38.6972 60.8097C39.5358 60.8097 40.2338 61.3157 40.2338 62.7774C40.2338 65.012 39.7044 66.1177 37.1605 67.317V62.3698Z" fill="white"/>
<path d="M47.8562 58.8136C47.453 58.8002 47.0515 58.8726 46.6784 59.0261C46.3052 59.1795 45.969 59.4105 45.6918 59.7037L45.2233 59.0103H43.8179V77.7966H45.9307V73.2055C46.1883 73.4861 46.5055 73.7054 46.859 73.8473C47.2125 73.9892 47.5932 74.05 47.9733 74.0253C49.5803 74.0253 51.145 72.9197 51.145 70.3711V62.3506C51.1216 60.1862 49.9457 58.8136 47.8562 58.8136ZM49.0087 70.3711C49.0087 70.7793 48.8465 71.1707 48.5579 71.4593C48.2693 71.748 47.8779 71.9101 47.4697 71.9101C47.0616 71.9101 46.6701 71.748 46.3815 71.4593C46.0929 71.1707 45.9307 70.7793 45.9307 70.3711V62.3741C45.9307 61.9659 46.0929 61.5745 46.3815 61.2859C46.6701 60.9972 47.0616 60.8351 47.4697 60.8351C47.8779 60.8351 48.2693 60.9972 48.5579 61.2859C48.8465 61.5745 49.0087 61.9659 49.0087 62.3741V70.3711Z" fill="white"/>
<path d="M69.5236 70.3758C69.5236 70.7834 69.3617 71.1742 69.0735 71.4624C68.7853 71.7506 68.3945 71.9125 67.987 71.9125C67.5794 71.9125 67.1886 71.7506 66.9004 71.4624C66.6122 71.1742 66.4503 70.7834 66.4503 70.3758V59.0103H64.3328V70.4648C64.3328 73.0837 65.9912 74.0206 67.6122 74.0206C68.8396 74.0206 69.3174 73.585 69.533 73.2242V77.7873H71.6692V59.001H69.5236V70.3758Z" fill="white"/>
<path d="M77.9562 66.0752C78.5337 65.8969 79.0346 65.5298 79.3787 65.0329C79.7227 64.5359 79.8899 63.9379 79.8536 63.3346V62.4725C79.8705 62.0007 79.7926 61.5303 79.6244 61.0891C79.4561 60.648 79.2011 60.2451 78.8743 59.9043C78.5475 59.5635 78.1556 59.2918 77.7219 59.1053C77.2882 58.9188 76.8214 58.8212 76.3493 58.8184C74.3067 58.8184 72.6951 60.1161 72.6951 62.4725V63.0956H74.808V62.4725C74.8055 62.2697 74.8436 62.0683 74.9203 61.8804C74.9969 61.6926 75.1104 61.5219 75.2541 61.3787C75.3978 61.2354 75.5687 61.1224 75.7569 61.0464C75.945 60.9703 76.1464 60.9328 76.3493 60.9359C76.5423 60.9402 76.7323 60.9842 76.9075 61.0652C77.0827 61.1461 77.2394 61.2623 77.3678 61.4065C77.4961 61.5507 77.5934 61.7197 77.6535 61.9031C77.7137 62.0865 77.7354 62.2804 77.7173 62.4725V63.194C77.7173 64.8056 77.2816 65.335 75.4826 65.335V67.0169C77.2816 67.0169 77.886 67.7149 77.886 69.2047V70.3806C77.8866 70.5826 77.8473 70.7827 77.7702 70.9694C77.6932 71.1561 77.5801 71.3257 77.4373 71.4685C77.2944 71.6113 77.1248 71.7245 76.9381 71.8015C76.7514 71.8785 76.5513 71.9179 76.3493 71.9172C76.1459 71.9224 75.9436 71.8861 75.7546 71.8108C75.5656 71.7354 75.3938 71.6225 75.2497 71.4789C75.1056 71.3352 74.9922 71.1638 74.9163 70.975C74.8403 70.7862 74.8035 70.584 74.808 70.3806V70.137L72.6951 69.4436V70.3806C72.6926 70.8612 72.7855 71.3375 72.9682 71.7819C73.151 72.2264 73.4201 72.6302 73.7599 72.97C74.0997 73.3099 74.5035 73.5789 74.948 73.7617C75.3924 73.9444 75.8687 74.0373 76.3493 74.0348C76.8323 74.047 77.3128 73.9609 77.7614 73.7815C78.21 73.6021 78.6174 73.3333 78.9589 72.9915C79.3003 72.6496 79.5686 72.2418 79.7473 71.793C79.9261 71.3441 80.0117 70.8636 79.9988 70.3806V69.0595C79.9801 67.3448 78.9447 66.3376 77.9562 66.0752Z" fill="white"/>
<path d="M23.3114 64.2344H20.0179V59.0107H17.905V64.2344V66.3519V73.6884H20.0179V66.3519H23.3114V73.6884H25.4242V66.3519V64.2344V59.0107H23.3114V64.2344Z" fill="white"/>
<path d="M3.22318 56.9303H6.61503L7.35054 54.8081H0V56.921L2.44081 59.0479C1.76205 59.2873 1.17876 59.7394 0.777782 60.3371C0.376802 60.9348 0.179583 61.646 0.2155 62.3648V70.3665C0.190662 70.8526 0.268018 71.3384 0.442573 71.7927C0.617127 72.247 0.885002 72.6596 1.2289 73.004C1.57281 73.3483 1.98509 73.6167 2.43915 73.7918C2.89321 73.967 3.37895 74.0449 3.86501 74.0207C4.35001 74.0399 4.83371 73.9584 5.28571 73.7815C5.73771 73.6047 6.14823 73.3362 6.49144 72.993C6.83465 72.6498 7.10314 72.2392 7.28001 71.7872C7.45688 71.3352 7.53832 70.8515 7.5192 70.3665V62.3742C7.53084 61.9115 7.44933 61.4511 7.27952 61.0206C7.1097 60.59 6.85505 60.198 6.53069 59.8678L3.22318 56.9303ZM5.40165 70.3759C5.40165 70.7835 5.23975 71.1743 4.95158 71.4625C4.6634 71.7507 4.27255 71.9125 3.86501 71.9125C3.45747 71.9125 3.06662 71.7507 2.77844 71.4625C2.49027 71.1743 2.32838 70.7835 2.32838 70.3759V62.3742C2.31101 62.1669 2.33864 61.9584 2.40939 61.7628C2.48014 61.5672 2.59233 61.3893 2.73827 61.2411C2.88422 61.0929 3.06046 60.9781 3.25494 60.9044C3.44941 60.8307 3.65753 60.7999 3.86501 60.8141C4.14031 60.8106 4.41222 60.875 4.65675 61.0015L5.12523 61.4278C5.30575 61.7063 5.39725 62.0331 5.38759 62.3648L5.40165 70.3759Z" fill="white"/>
<path d="M57.305 63.8502L53.8663 59.0107H52.4702V73.6884H54.5878V63.6769L56.0073 65.6679L56.5742 66.455H58.0405L58.6074 65.6679L60.0456 63.6488V73.6884H62.1632V59.0107H60.7671L57.305 63.8502Z" fill="white"/>
</svg>
