<svg width="263" height="112" viewBox="0 0 263 112" fill="none" xmlns="http://www.w3.org/2000/svg">
<g filter="url(#filter0_d)">
<rect x="56" y="20" width="203" height="56" fill="white"/>
</g>
<path d="M129.459 56.6615C129.459 57.2292 129.215 57.7736 128.78 58.1751C128.345 58.5765 127.755 58.802 127.139 58.802C126.524 58.802 125.934 58.5765 125.498 58.1751C125.063 57.7736 124.819 57.2292 124.819 56.6615V40.8415H121.627V56.7895C121.627 60.4384 124.125 61.7428 126.554 61.7428C128.41 61.7428 129.156 61.1346 129.459 60.6385V66.9921H132.686V40.8415H129.459V56.6615Z" fill="black"/>
<path d="M159.488 40.8415H155.975L151.803 46.891V40.8415H148.611V61.2706H151.803V50.3719L156.444 61.2706H160.139L154.197 48.4594L159.488 40.8415Z" fill="black"/>
<path d="M171.891 45.9226C171.891 42.4818 169.393 40.5693 166.375 40.5693C163.356 40.5693 160.858 42.3137 160.858 45.5225V56.6613C160.858 57.9835 161.428 59.2515 162.441 60.1864C163.455 61.1213 164.829 61.6466 166.262 61.6466C167.695 61.6466 169.07 61.1213 170.083 60.1864C171.097 59.2515 171.666 57.9835 171.666 56.6613V55.357L168.439 56.3252V56.6613C168.458 56.9374 168.415 57.214 168.314 57.4742C168.212 57.7345 168.054 57.9728 167.849 58.1744C167.644 58.376 167.396 58.5367 167.121 58.6465C166.846 58.7564 166.549 58.8131 166.249 58.8131C165.949 58.8131 165.653 58.7564 165.378 58.6465C165.102 58.5367 164.855 58.376 164.649 58.1744C164.444 57.9728 164.286 57.7345 164.184 57.4742C164.083 57.214 164.04 56.9374 164.059 56.6613V55.6611C169.567 53.0524 171.891 51.444 171.891 45.9226ZM164.085 45.5225C164.058 45.2339 164.099 44.9432 164.205 44.6706C164.312 44.3979 164.48 44.1497 164.7 43.9429C164.92 43.7361 165.186 43.5757 165.48 43.4727C165.773 43.3697 166.088 43.3264 166.401 43.346C167.667 43.346 168.726 44.0501 168.726 46.0827C168.726 49.1954 167.928 50.7318 164.085 52.4042V45.5225Z" fill="black"/>
<path d="M180.235 40.5773C179.628 40.5617 179.024 40.6641 178.462 40.8777C177.9 41.0914 177.393 41.4116 176.974 41.8176L176.254 40.8494H174.146V67H177.338V60.5984C177.723 60.985 178.195 61.2882 178.721 61.486C179.248 61.6839 179.815 61.7716 180.383 61.7426C182.803 61.7426 185.171 60.2062 185.171 56.6614V45.4585C185.127 42.4818 183.349 40.5773 180.235 40.5773ZM181.97 56.6614C181.97 57.2291 181.726 57.7735 181.291 58.1749C180.856 58.5764 180.265 58.8019 179.65 58.8019C179.035 58.8019 178.444 58.5764 178.009 58.1749C177.574 57.7735 177.33 57.2291 177.33 56.6614V45.5386C177.31 45.2464 177.356 44.9538 177.464 44.6785C177.572 44.4033 177.74 44.1514 177.957 43.9382C178.174 43.7251 178.437 43.5552 178.728 43.4391C179.019 43.323 179.333 43.2631 179.65 43.2631C179.967 43.2631 180.281 43.323 180.572 43.4391C180.863 43.5552 181.126 43.7251 181.343 43.9382C181.561 44.1514 181.728 44.4033 181.836 44.6785C181.944 44.9538 181.99 45.2464 181.97 45.5386V56.6614Z" fill="black"/>
<path d="M212.867 56.6615C212.867 57.2292 212.622 57.7736 212.187 58.1751C211.752 58.5765 211.162 58.802 210.546 58.802C209.931 58.802 209.341 58.5765 208.906 58.1751C208.471 57.7736 208.226 57.2292 208.226 56.6615V40.8415H205.034V56.7895C205.034 60.4384 207.532 61.7428 209.961 61.7428C211.808 61.7428 212.563 61.1346 212.858 60.6385V66.9921H216.085V40.8415H212.858L212.867 56.6615Z" fill="black"/>
<path d="M225.582 50.6759C226.453 50.4268 227.209 49.9153 227.728 49.2234C228.247 48.5314 228.499 47.6989 228.445 46.859V45.6587C228.47 45.0015 228.352 44.3462 228.098 43.7318C227.844 43.1173 227.459 42.5562 226.966 42.0816C226.472 41.607 225.881 41.2286 225.226 40.9688C224.571 40.7091 223.866 40.5733 223.154 40.5694C222.418 40.5284 221.681 40.6321 220.992 40.8734C220.303 41.1148 219.678 41.4884 219.157 41.9696C218.636 42.4507 218.232 43.0284 217.972 43.6643C217.711 44.3003 217.6 44.9801 217.646 45.6587V46.5229H220.829V45.6587C220.824 45.3758 220.881 45.0951 220.996 44.8329C221.112 44.5708 221.283 44.3326 221.499 44.1326C221.716 43.9326 221.974 43.7748 222.258 43.6686C222.543 43.5623 222.847 43.5098 223.154 43.5141C223.445 43.5218 223.731 43.5843 223.995 43.6979C224.259 43.8115 224.495 43.9738 224.688 44.1747C224.882 44.3756 225.028 44.6109 225.119 44.8661C225.211 45.1213 225.244 45.3911 225.218 45.6587V46.6589C225.218 48.8995 224.559 49.6357 221.844 49.6357V51.9403C224.559 51.9403 225.469 52.9085 225.469 54.989V56.5894C225.469 57.1561 225.225 57.6995 224.791 58.1002C224.357 58.5009 223.768 58.726 223.154 58.726C222.847 58.7325 222.542 58.6817 222.258 58.5768C221.973 58.4718 221.714 58.3148 221.497 58.1152C221.28 57.9156 221.109 57.6776 220.994 57.4153C220.879 57.1531 220.823 56.8722 220.829 56.5894V56.2534L217.646 55.2851V56.5894C217.642 57.2576 217.782 57.9198 218.058 58.5377C218.334 59.1556 218.739 59.7171 219.251 60.1895C219.763 60.662 220.372 61.0362 221.042 61.2904C221.712 61.5446 222.429 61.6739 223.154 61.6707C223.882 61.6883 224.607 61.5689 225.284 61.3198C225.961 61.0707 226.575 60.697 227.091 60.2216C227.606 59.7462 228.011 59.179 228.281 58.5546C228.551 57.9301 228.68 57.2615 228.661 56.5894V54.749C228.71 53.8513 228.433 52.9643 227.876 52.2271C227.319 51.4899 226.512 50.9443 225.582 50.6759V50.6759Z" fill="black"/>
<path d="M143.173 48.1153H138.203V40.8415H135.011V48.1153V51.0601V61.2706H138.203V51.0601H143.173V61.2706H146.356V51.0601V48.1153V40.8415H143.173V48.1153Z" fill="black"/>
<path d="M112.866 37.9527H117.984L119.094 35H108V37.9448L111.686 40.9055C110.659 41.2395 109.777 41.8715 109.172 42.7067C108.567 43.5419 108.271 44.5355 108.33 45.5387V56.6615C108.292 57.3378 108.409 58.0139 108.673 58.646C108.936 59.2781 109.341 59.8522 109.86 60.3311C110.379 60.81 111.001 61.1831 111.686 61.4262C112.371 61.6694 113.104 61.7772 113.837 61.7428C114.568 61.7686 115.297 61.6549 115.978 61.4087C116.659 61.1625 117.277 60.7891 117.794 60.312C118.312 59.8349 118.716 59.2643 118.983 58.6362C119.25 58.008 119.373 57.3357 119.345 56.6615V45.5387C119.363 44.8945 119.24 44.2537 118.984 43.6543C118.728 43.0549 118.343 42.5092 117.853 42.0498L112.866 37.9527ZM116.153 56.6615C116.153 57.2292 115.909 57.7736 115.474 58.1751C115.039 58.5765 114.448 58.802 113.833 58.802C113.218 58.802 112.628 58.5765 112.192 58.1751C111.757 57.7736 111.513 57.2292 111.513 56.6615V45.5387C111.486 45.25 111.527 44.9594 111.633 44.6867C111.739 44.4141 111.908 44.1658 112.128 43.9591C112.348 43.7523 112.614 43.5919 112.908 43.4889C113.201 43.3858 113.515 43.3426 113.829 43.3621C114.242 43.3587 114.651 43.4494 115.017 43.6262L115.746 44.2183C116.022 44.6103 116.162 45.0712 116.145 45.5387L116.153 56.6615Z" fill="black"/>
<path d="M194.462 47.5792L189.266 40.8415H187.167V61.2706H190.35V47.3391L192.501 50.1078L193.351 51.2121H195.563L196.422 50.1078L198.59 47.2991V61.2706H201.782V40.8415H199.675L194.462 47.5792Z" fill="black"/>
<g filter="url(#filter1_d)">
<path d="M32 24C45.2548 10.7452 66.7452 10.7452 80 24C93.2548 37.2548 93.2548 58.7452 80 72L56 96L32 72C18.7452 58.7452 18.7452 37.2548 32 24Z" fill="#D13A3A"/>
</g>
<path d="M65.9392 47.6728V56.4716H38.8892V46.4957V45.9957H38.3892H37.332H36.832V46.4957V58.0364V58.5364H37.332H73.3683H73.8683V58.0364V47.6805C73.8683 47.0253 73.6629 46.095 73.0582 45.3166C72.4361 44.5159 71.4216 43.9168 69.903 43.9168C68.3843 43.9168 67.3704 44.5159 66.7487 45.3155C66.1444 46.0928 65.9392 47.0211 65.9392 47.6728ZM71.8081 47.6798L71.811 56.4716H67.9918V47.6759C67.9918 47.6023 68.0104 47.1573 68.2555 46.7472C68.4766 46.3771 68.9149 45.9739 69.8999 45.9739C70.8849 45.9739 71.3224 46.377 71.5432 46.7467C71.7848 47.1512 71.8065 47.5895 71.8081 47.6767C71.8081 47.6778 71.8081 47.6788 71.8081 47.6798Z" fill="white" stroke="white"/>
<defs>
<filter id="filter0_d" x="52" y="20" width="211" height="64" filterUnits="userSpaceOnUse" color-interpolation-filters="sRGB">
<feFlood flood-opacity="0" result="BackgroundImageFix"/>
<feColorMatrix in="SourceAlpha" type="matrix" values="0 0 0 0 0 0 0 0 0 0 0 0 0 0 0 0 0 0 127 0"/>
<feOffset dy="4"/>
<feGaussianBlur stdDeviation="2"/>
<feColorMatrix type="matrix" values="0 0 0 0 0 0 0 0 0 0 0 0 0 0 0 0 0 0 0.25 0"/>
<feBlend mode="normal" in2="BackgroundImageFix" result="effect1_dropShadow"/>
<feBlend mode="normal" in="SourceGraphic" in2="effect1_dropShadow" result="shape"/>
</filter>
<filter id="filter1_d" x="0" y="0" width="112" height="112" filterUnits="userSpaceOnUse" color-interpolation-filters="sRGB">
<feFlood flood-opacity="0" result="BackgroundImageFix"/>
<feColorMatrix in="SourceAlpha" type="matrix" values="0 0 0 0 0 0 0 0 0 0 0 0 0 0 0 0 0 0 127 0"/>
<feOffset dy="8"/>
<feGaussianBlur stdDeviation="4"/>
<feColorMatrix type="matrix" values="0 0 0 0 0 0 0 0 0 0 0 0 0 0 0 0 0 0 0.25 0"/>
<feBlend mode="normal" in2="BackgroundImageFix" result="effect1_dropShadow"/>
<feBlend mode="normal" in="SourceGraphic" in2="effect1_dropShadow" result="shape"/>
</filter>
</defs>
</svg>
