<svg width="26" height="25" viewBox="0 0 26 25" fill="none" xmlns="http://www.w3.org/2000/svg">
<path fill-rule="evenodd" clip-rule="evenodd" d="M13.4268 2.24275C15.0887 2.18038 16.7528 2.22682 18.4086 2.38174C19.2117 2.37152 20.0096 2.51236 20.7608 2.79695C21.797 3.28073 22.6299 4.11488 23.1129 5.15277C23.3979 5.90559 23.5391 6.70532 23.5293 7.51037C23.5293 8.75778 23.668 9.17299 23.668 12.5C23.7303 14.1645 23.6839 15.8312 23.5293 17.4896C23.5395 18.294 23.3988 19.0931 23.1147 19.8454C22.6317 20.8833 21.7988 21.7175 20.7626 22.2013C20.0114 22.4859 19.2135 22.6267 18.4104 22.6165C17.165 22.6165 16.7504 22.7555 13.4286 22.7555C11.7667 22.8178 10.1025 22.7714 8.44672 22.6165C7.64364 22.6267 6.84578 22.4859 6.09458 22.2013C5.05831 21.7175 4.22546 20.8833 3.74244 19.8454C3.45707 19.0933 3.31524 18.2942 3.32432 17.4896C3.32432 16.2422 3.18554 15.827 3.18554 12.5C3.12327 10.8355 3.16963 9.16878 3.32432 7.51037C3.31411 6.70603 3.45473 5.90693 3.73888 5.15455C3.9807 4.64035 4.30866 4.17144 4.70856 3.76815C5.03336 3.28365 5.52696 2.93797 6.0928 2.79873C6.84388 2.51353 7.64175 2.37209 8.44494 2.38174C10.1008 2.22682 11.7649 2.18038 13.4268 2.24275ZM13.4268 0.0259268C11.7187 -0.0349774 10.0085 0.011446 8.30616 0.164924C7.26618 0.162473 6.2345 0.35029 5.2619 0.719129C4.42231 0.993663 3.66247 1.46961 3.04854 2.10553C2.41361 2.72042 1.9384 3.48145 1.6643 4.32235C1.22988 5.27689 1.03971 6.32478 1.11096 7.37137C0.957717 9.07633 0.911366 10.7892 0.972175 12.5C0.911366 14.2108 0.957717 15.9237 1.11096 17.6286C1.10851 18.6702 1.29603 19.7035 1.6643 20.6776C1.9384 21.5185 2.41361 22.2796 3.04854 22.8945C3.66247 23.5304 4.42231 24.0063 5.2619 24.2809C6.2345 24.6497 7.26618 24.8375 8.30616 24.8351C10.0085 24.9886 11.7187 25.035 13.4268 24.9741C15.1349 25.035 16.8451 24.9886 18.5474 24.8351C19.5874 24.8375 20.6191 24.6497 21.5917 24.2809C22.4251 23.9932 23.1822 23.5193 23.8056 22.895C24.4289 22.2707 24.9021 21.5124 25.1893 20.6776C25.5575 19.7035 25.7451 18.6702 25.7426 17.6286C25.7426 16.2422 25.8814 15.827 25.8814 12.5C25.9422 10.7892 25.8959 9.07633 25.7426 7.37137C25.7451 6.32977 25.5575 5.29647 25.1893 4.32235C24.9152 3.48145 24.44 2.72042 23.805 2.10553C23.1911 1.46961 22.4313 0.993663 21.5917 0.719129C20.6191 0.35029 19.5874 0.162473 18.5474 0.164924C16.8451 0.011446 15.1349 -0.0349774 13.4268 0.0259268ZM13.4268 6.12397C12.5869 6.10999 11.7529 6.26536 10.9742 6.58084C10.1955 6.89631 9.48814 7.36545 8.8942 7.96033C8.30025 8.5552 7.83184 9.26367 7.51686 10.0436C7.20188 10.8234 7.04675 11.6588 7.0607 12.5C7.0607 13.7611 7.43407 14.9938 8.13358 16.0423C8.83309 17.0909 9.82734 17.9081 10.9906 18.3907C12.1538 18.8733 13.4339 18.9995 14.6687 18.7535C15.9036 18.5075 17.038 17.9002 17.9283 17.0085C18.8186 16.1168 19.4249 14.9807 19.6706 13.7439C19.9162 12.5071 19.7901 11.2251 19.3083 10.06C18.8265 8.89493 18.0105 7.89913 16.9636 7.19852C15.9167 6.49791 14.6859 6.12397 13.4268 6.12397ZM13.4268 16.6574C12.879 16.6673 12.3347 16.5666 11.8267 16.3611C11.3186 16.1557 10.857 15.8499 10.4696 15.4618C10.0822 15.0738 9.77677 14.6115 9.57167 14.1026C9.36656 13.5937 9.26595 13.0487 9.27584 12.5C9.26595 11.9513 9.36656 11.4063 9.57167 10.8974C9.77677 10.3885 10.0822 9.92623 10.4696 9.53819C10.857 9.15014 11.3186 8.84428 11.8267 8.63885C12.3347 8.43343 12.879 8.33266 13.4268 8.34257C13.9746 8.33266 14.5188 8.43343 15.0269 8.63885C15.535 8.84428 15.9965 9.15014 16.384 9.53819C16.7714 9.92623 17.0768 10.3885 17.2819 10.8974C17.487 11.4063 17.5876 11.9513 17.5777 12.5C17.5876 13.0487 17.487 13.5937 17.2819 14.1026C17.0768 14.6115 16.7714 15.0738 16.384 15.4618C15.9965 15.8499 15.535 16.1557 15.0269 16.3611C14.5188 16.5666 13.9746 16.6673 13.4268 16.6574ZM20.0687 4.32235C19.7674 4.32235 19.473 4.41182 19.2225 4.57943C18.972 4.74704 18.7768 4.98528 18.6616 5.26401C18.5463 5.54274 18.5161 5.84945 18.5749 6.14535C18.6337 6.44125 18.7787 6.71305 18.9917 6.92638C19.2047 7.13971 19.4761 7.28499 19.7715 7.34385C20.067 7.4027 20.3732 7.3725 20.6515 7.25704C20.9298 7.14159 21.1676 6.94607 21.335 6.69522C21.5024 6.44437 21.5917 6.14945 21.5917 5.84775C21.5884 5.4442 21.4269 5.0581 21.142 4.77274C20.8571 4.48737 20.4716 4.32561 20.0687 4.32235Z" fill="white"/>
</svg>
